<?xml version="1.0" encoding="utf-8"?>
<!-- Generator: Adobe Illustrator 16.0.0, SVG Export Plug-In . SVG Version: 6.00 Build 0)  -->
<!DOCTYPE svg PUBLIC "-//W3C//DTD SVG 1.1//EN" "http://www.w3.org/Graphics/SVG/1.1/DTD/svg11.dtd">
<svg version="1.1"
	 id="svg8" inkscape:version="0.92.2 (5c3e80d, 2017-08-06)" sodipodi:docname="whistle.svg" xmlns:dc="http://purl.org/dc/elements/1.1/" xmlns:cc="http://creativecommons.org/ns#" xmlns:rdf="http://www.w3.org/1999/02/22-rdf-syntax-ns#" xmlns:svg="http://www.w3.org/2000/svg" xmlns:sodipodi="http://sodipodi.sourceforge.net/DTD/sodipodi-0.dtd" xmlns:inkscape="http://www.inkscape.org/namespaces/inkscape"
	 xmlns="http://www.w3.org/2000/svg" xmlns:xlink="http://www.w3.org/1999/xlink" x="0px" y="0px" width="595.275px"
	 height="841.891px" viewBox="0 0 595.275 841.891" enable-background="new 0 0 595.275 841.891" xml:space="preserve">
<sodipodi:namedview  showgrid="false" inkscape:cy="652.3373" inkscape:cx="291.55419" inkscape:zoom="0.49497475" borderopacity="1.0" bordercolor="#666666" pagecolor="#ffffff" id="base" inkscape:window-maximized="1" inkscape:window-y="-8" inkscape:current-layer="layer1" inkscape:window-x="1912" inkscape:document-units="mm" inkscape:pageshadow="2" inkscape:pageopacity="0.0" inkscape:window-height="1017" inkscape:window-width="1920">
	</sodipodi:namedview>
<g id="layer1" inkscape:label="Layer 1" inkscape:groupmode="layer">
	<g id="g4521" transform="translate(0,28.865109)">
		
			<path id="path4515" inkscape:connector-curvature="0" sodipodi:nodetypes="zzzssccczcz" fill="none" stroke="#000000" stroke-width="24" stroke-linecap="round" stroke-linejoin="round" d="
			M248.498,270.573c-33.907,0-107.759,27.875-106.824,112.127s60.862,118.563,117.43,117.43
			c56.569-1.133,107.259-54.097,105.309-116.672c-0.842-27.004,25.346-48.873,56.063-49.245l125.007-1.516v-61.366l-204.556-0.568
			c0.633,37.38-9.221,41.215-22.16,41.29c-12.939,0.074-22.341-3.728-21.782-41.479
			C296.985,270.573,282.404,270.573,248.498,270.573z"/>
		
			<path id="path4517" inkscape:connector-curvature="0" sodipodi:nodetypes="cc" fill="none" stroke="#000000" stroke-width="24" stroke-linecap="round" d="
			M103.036,416.793c-37.078,1.229-39.641-63.669-0.758-62.882"/>
	</g>
</g>
</svg>
